<svg xmlns="http://www.w3.org/2000/svg" xmlns:xlink="http://www.w3.org/1999/xlink" width="5000" zoomAndPan="magnify" viewBox="0 0 3750 3749.999967" height="5000" preserveAspectRatio="xMidYMid meet" version="1.0"><defs><g/><clipPath id="dcfff73d63"><path d="M 220.125 220.125 L 3529.875 220.125 L 3529.875 3529.875 L 220.125 3529.875 Z M 220.125 220.125 " clip-rule="nonzero"/></clipPath><clipPath id="6b759d9931"><path d="M 1875 220.125 C 2788.960938 220.125 3529.875 961.039062 3529.875 1875 C 3529.875 2788.960938 2788.960938 3529.875 1875 3529.875 C 961.039062 3529.875 220.125 2788.960938 220.125 1875 C 220.125 961.039062 961.039062 220.125 1875 220.125 L 1875 551.101562 C 1143.832031 551.101562 551.101562 1143.832031 551.101562 1875 C 551.101562 2606.167969 1143.832031 3198.898438 1875 3198.898438 C 2606.167969 3198.898438 3198.898438 2606.167969 3198.898438 1875 C 3198.898438 1143.832031 2606.167969 551.101562 1875 551.101562 Z M 1875 220.125 " clip-rule="nonzero"/></clipPath><clipPath id="797825e0d5"><path d="M 1875 229 L 3530 229 L 3530 3141 L 1875 3141 Z M 1875 229 " clip-rule="nonzero"/></clipPath><clipPath id="a4a5bb1814"><path d="M 2058.875 230.371094 C 2704.476562 302.550781 3248.132812 745.785156 3448.878906 1363.617188 C 3649.625 1981.445312 3470.320312 2659.582031 2990.445312 3097.453125 C 2922.933594 3159.058594 2818.261719 3154.265625 2756.65625 3086.753906 C 2695.050781 3019.238281 2699.84375 2914.566406 2767.355469 2852.960938 C 3151.257812 2502.667969 3294.699219 1960.15625 3134.105469 1465.890625 C 2973.507812 971.628906 2538.582031 617.042969 2022.101562 559.296875 C 1963.34375 552.726562 1912.554688 515.3125 1888.863281 461.140625 C 1865.175781 406.972656 1872.183594 344.28125 1907.253906 296.679688 C 1942.320312 249.078125 2000.117188 223.804688 2058.875 230.371094 Z M 2058.875 230.371094 " clip-rule="nonzero"/></clipPath></defs><g fill="#ffffff" fill-opacity="1"><g transform="translate(1082.009146, 2211.147873)"><g><path d="M 391.390625 -138.046875 C 391.390625 -128.628906 387.859375 -120.390625 380.796875 -113.328125 C 373.734375 -106.273438 365.238281 -102.75 355.3125 -102.75 L 337.265625 -102.75 C 329.941406 -102.75 326.28125 -99.347656 326.28125 -92.546875 L 326.28125 -36.078125 C 326.28125 -26.140625 322.878906 -17.640625 316.078125 -10.578125 C 309.285156 -3.523438 300.921875 0 290.984375 0 L 269.8125 0 C 259.875 0 251.375 -3.523438 244.3125 -10.578125 C 237.257812 -17.640625 233.734375 -26.140625 233.734375 -36.078125 L 233.734375 -92.546875 C 233.734375 -99.347656 230.332031 -102.75 223.53125 -102.75 L 67.453125 -102.75 C 57.515625 -102.75 49.015625 -106.273438 41.953125 -113.328125 C 34.898438 -120.390625 31.375 -128.628906 31.375 -138.046875 L 31.375 -236.875 C 31.375 -260.925781 36.863281 -283.929688 47.84375 -305.890625 L 112.15625 -428.25 C 118.957031 -441.84375 129.675781 -448.640625 144.3125 -448.640625 L 167.84375 -448.640625 C 181.445312 -448.640625 191.644531 -442.890625 198.4375 -431.390625 C 205.757812 -420.410156 206.28125 -408.644531 200 -396.09375 L 130.984375 -262.75 C 126.796875 -253.34375 124.703125 -244.71875 124.703125 -236.875 L 124.703125 -205.5 C 124.703125 -199.21875 128.363281 -196.078125 135.6875 -196.078125 L 223.53125 -196.078125 C 230.332031 -196.078125 233.734375 -199.21875 233.734375 -205.5 L 233.734375 -494.140625 C 233.734375 -504.597656 237.257812 -513.222656 244.3125 -520.015625 C 251.375 -526.816406 259.875 -530.21875 269.8125 -530.21875 L 290.984375 -530.21875 C 300.921875 -530.21875 309.285156 -526.816406 316.078125 -520.015625 C 322.878906 -513.222656 326.28125 -504.597656 326.28125 -494.140625 L 326.28125 -205.5 C 326.28125 -199.21875 329.941406 -196.078125 337.265625 -196.078125 L 355.3125 -196.078125 C 365.238281 -196.078125 373.734375 -192.546875 380.796875 -185.484375 C 387.859375 -178.429688 391.390625 -169.9375 391.390625 -160 Z M 391.390625 -138.046875 "/></g></g></g><g fill="#ffffff" fill-opacity="1"><g transform="translate(1504.769044, 2211.147873)"><g><path d="M 390.609375 -103.53125 C 390.609375 -84.707031 385.898438 -67.453125 376.484375 -51.765625 C 367.066406 -36.078125 354.515625 -23.523438 338.828125 -14.109375 C 323.148438 -4.703125 305.894531 0 287.0625 0 L 136.46875 0 C 119.738281 0 103.789062 -3.921875 88.625 -11.765625 L 87.84375 -12.546875 C 70.59375 -21.441406 57 -34.125 47.0625 -50.59375 C 37.125 -67.0625 32.15625 -84.707031 32.15625 -103.53125 L 32.15625 -425.90625 C 32.15625 -445.25 36.859375 -462.765625 46.265625 -478.453125 C 55.679688 -494.140625 68.363281 -506.6875 84.3125 -516.09375 C 100.257812 -525.507812 117.644531 -530.21875 136.46875 -530.21875 L 287.0625 -530.21875 C 291.769531 -530.21875 298.175781 -529.5625 306.28125 -528.25 C 314.382812 -526.945312 322.882812 -523.941406 331.78125 -519.234375 L 332.5625 -519.234375 C 350.34375 -510.347656 364.460938 -497.664062 374.921875 -481.1875 C 385.378906 -464.71875 390.609375 -446.289062 390.609375 -425.90625 Z M 244.71875 -427.46875 C 245.757812 -430.082031 245.753906 -432.300781 244.703125 -434.125 C 243.660156 -435.957031 241.832031 -436.875 239.21875 -436.875 L 136.46875 -436.875 C 133.851562 -436.875 131.367188 -435.828125 129.015625 -433.734375 C 126.671875 -431.648438 125.5 -429.039062 125.5 -425.90625 L 125.5 -221.96875 C 125.5 -219.875 126.539062 -218.566406 128.625 -218.046875 C 130.71875 -217.523438 132.289062 -218.3125 133.34375 -220.40625 Z M 297.265625 -103.53125 L 297.265625 -312.953125 C 297.265625 -315.566406 296.347656 -317.132812 294.515625 -317.65625 C 292.691406 -318.175781 290.992188 -317.394531 289.421875 -315.3125 L 175.6875 -101.96875 C 175.164062 -99.875 175.425781 -97.78125 176.46875 -95.6875 C 177.519531 -93.59375 179.09375 -92.546875 181.1875 -92.546875 L 287.0625 -92.546875 C 289.675781 -92.546875 292.03125 -93.722656 294.125 -96.078125 C 296.21875 -98.429688 297.265625 -100.914062 297.265625 -103.53125 Z M 297.265625 -103.53125 "/></g></g></g><g fill="#ffffff" fill-opacity="1"><g transform="translate(1927.528943, 2211.147873)"><g/></g></g><g fill="#ffffff" fill-opacity="1"><g transform="translate(2107.92741, 2211.147873)"><g><path d="M 446.296875 -478.453125 L 200.796875 -18.828125 C 193.992188 -6.273438 183.535156 0 169.421875 0 L 145.109375 0 C 131.503906 0 121.304688 -5.75 114.515625 -17.25 C 108.242188 -28.757812 107.984375 -40.785156 113.734375 -53.328125 L 359.234375 -511.390625 C 366.023438 -523.941406 376.484375 -530.21875 390.609375 -530.21875 L 414.921875 -530.21875 C 428.515625 -530.21875 438.707031 -524.460938 445.5 -512.953125 C 452.300781 -501.972656 452.566406 -490.472656 446.296875 -478.453125 Z M 242.359375 -360.015625 C 242.359375 -335.960938 233.992188 -315.304688 217.265625 -298.046875 C 200.535156 -280.796875 179.878906 -272.171875 155.296875 -272.171875 L 119.21875 -272.171875 C 103.007812 -272.171875 88.367188 -276.09375 75.296875 -283.9375 C 62.222656 -291.78125 51.765625 -302.367188 43.921875 -315.703125 C 36.078125 -329.035156 32.15625 -343.804688 32.15625 -360.015625 L 32.15625 -443.15625 C 32.15625 -459.363281 36.078125 -474.003906 43.921875 -487.078125 C 51.765625 -500.148438 62.222656 -510.609375 75.296875 -518.453125 C 88.367188 -526.296875 103.007812 -530.21875 119.21875 -530.21875 L 155.296875 -530.21875 C 179.878906 -530.21875 200.535156 -521.71875 217.265625 -504.71875 C 233.992188 -487.726562 242.359375 -467.207031 242.359375 -443.15625 Z M 149.8125 -374.921875 L 149.8125 -426.6875 C 149.8125 -434 146.148438 -437.65625 138.828125 -437.65625 L 135.6875 -437.65625 C 128.894531 -437.65625 125.5 -434 125.5 -426.6875 L 125.5 -374.921875 C 125.5 -368.640625 128.894531 -365.5 135.6875 -365.5 L 138.828125 -365.5 C 146.148438 -365.5 149.8125 -368.640625 149.8125 -374.921875 Z M 527.859375 -87.84375 C 527.859375 -63.269531 519.359375 -42.484375 502.359375 -25.484375 C 485.367188 -8.492188 464.847656 0 440.796875 0 L 404.71875 0 C 380.664062 0 360.140625 -8.492188 343.140625 -25.484375 C 326.148438 -42.484375 317.65625 -63.269531 317.65625 -87.84375 L 317.65625 -170.203125 C 317.65625 -194.773438 326.148438 -215.554688 343.140625 -232.546875 C 360.140625 -249.546875 380.664062 -258.046875 404.71875 -258.046875 L 440.796875 -258.046875 C 457.003906 -258.046875 471.644531 -254.125 484.71875 -246.28125 C 497.789062 -238.4375 508.25 -227.847656 516.09375 -214.515625 C 523.9375 -201.179688 527.859375 -186.410156 527.859375 -170.203125 Z M 434.53125 -103.53125 L 434.53125 -154.515625 C 434.53125 -161.316406 431.390625 -164.71875 425.109375 -164.71875 L 421.1875 -164.71875 C 413.875 -164.71875 410.21875 -161.316406 410.21875 -154.515625 L 410.21875 -103.53125 C 410.21875 -96.207031 413.875 -92.546875 421.1875 -92.546875 L 425.109375 -92.546875 C 431.390625 -92.546875 434.53125 -96.207031 434.53125 -103.53125 Z M 434.53125 -103.53125 "/></g></g></g><g clip-path="url(#dcfff73d63)"><g clip-path="url(#6b759d9931)"><path fill="#d9d9d9" d="M 220.125 220.125 L 3529.875 220.125 L 3529.875 3529.875 L 220.125 3529.875 Z M 220.125 220.125 " fill-opacity="1" fill-rule="nonzero"/></g></g><g clip-path="url(#797825e0d5)"><g clip-path="url(#a4a5bb1814)"><path fill="#00fefb" d="M 220.125 220.125 L 3529.875 220.125 L 3529.875 3529.875 L 220.125 3529.875 Z M 220.125 220.125 " fill-opacity="1" fill-rule="nonzero"/></g></g></svg>