<svg xmlns="http://www.w3.org/2000/svg" xmlns:xlink="http://www.w3.org/1999/xlink" width="5000" zoomAndPan="magnify" viewBox="0 0 3750 3749.999967" height="5000" preserveAspectRatio="xMidYMid meet" version="1.0"><defs><g/><clipPath id="6c86457b88"><path d="M 220.125 220.125 L 3529.875 220.125 L 3529.875 3529.875 L 220.125 3529.875 Z M 220.125 220.125 " clip-rule="nonzero"/></clipPath><clipPath id="45d45801cd"><path d="M 1875 220.125 C 2788.960938 220.125 3529.875 961.039062 3529.875 1875 C 3529.875 2788.960938 2788.960938 3529.875 1875 3529.875 C 961.039062 3529.875 220.125 2788.960938 220.125 1875 C 220.125 961.039062 961.039062 220.125 1875 220.125 L 1875 551.101562 C 1143.832031 551.101562 551.101562 1143.832031 551.101562 1875 C 551.101562 2606.167969 1143.832031 3198.898438 1875 3198.898438 C 2606.167969 3198.898438 3198.898438 2606.167969 3198.898438 1875 C 3198.898438 1143.832031 2606.167969 551.101562 1875 551.101562 Z M 1875 220.125 " clip-rule="nonzero"/></clipPath><clipPath id="4cc794f072"><path d="M 1409 229 L 3530 229 L 3530 3530 L 1409 3530 Z M 1409 229 " clip-rule="nonzero"/></clipPath><clipPath id="075945029a"><path d="M 2058.875 230.371094 C 2664.398438 298.070312 3183.738281 693.03125 3410.738281 1258.460938 C 3637.734375 1823.890625 3535.667969 2468.320312 3145.050781 2935.933594 C 2754.4375 3403.542969 2138.464844 3618.683594 1541.65625 3495.953125 C 1452.132812 3477.542969 1394.484375 3390.046875 1412.894531 3300.523438 C 1431.304688 3211 1518.804688 3153.355469 1608.324219 3171.765625 C 2085.769531 3269.949219 2578.546875 3097.835938 2891.042969 2723.746094 C 3203.535156 2349.65625 3285.1875 1834.113281 3103.589844 1381.769531 C 2921.992188 929.425781 2506.519531 613.457031 2022.101562 559.296875 C 1931.269531 549.140625 1865.871094 467.277344 1876.023438 376.449219 C 1886.179688 285.617188 1968.042969 220.21875 2058.875 230.371094 Z M 2058.875 230.371094 " clip-rule="nonzero"/></clipPath></defs><g fill="#ffffff" fill-opacity="1"><g transform="translate(1082.009146, 2211.146937)"><g><path d="M 390.609375 -472.953125 C 390.609375 -461.972656 386.945312 -453.347656 379.625 -447.078125 C 372.820312 -440.273438 364.453125 -436.875 354.515625 -436.875 L 135.6875 -436.875 C 128.894531 -436.875 125.5 -433.476562 125.5 -426.6875 L 125.5 -343.546875 C 125.5 -336.222656 128.894531 -332.5625 135.6875 -332.5625 L 287.0625 -332.5625 C 306.414062 -332.5625 323.800781 -327.851562 339.21875 -318.4375 C 354.644531 -309.03125 367.066406 -296.613281 376.484375 -281.1875 C 385.898438 -265.757812 390.609375 -248.375 390.609375 -229.03125 L 390.609375 -103.53125 C 390.609375 -84.707031 385.898438 -67.453125 376.484375 -51.765625 C 367.066406 -36.078125 354.515625 -23.523438 338.828125 -14.109375 C 323.148438 -4.703125 305.894531 0 287.0625 0 L 136.46875 0 C 117.644531 0 100.257812 -4.703125 84.3125 -14.109375 C 68.363281 -23.523438 55.679688 -36.078125 46.265625 -51.765625 C 36.859375 -67.453125 32.15625 -84.707031 32.15625 -103.53125 L 32.15625 -160 C 32.15625 -169.9375 35.679688 -178.429688 42.734375 -185.484375 C 49.796875 -192.546875 58.296875 -196.078125 68.234375 -196.078125 L 90.203125 -196.078125 C 99.609375 -196.078125 107.84375 -192.546875 114.90625 -185.484375 C 121.96875 -178.429688 125.5 -169.9375 125.5 -160 L 125.5 -103.53125 C 125.5 -100.914062 126.671875 -98.429688 129.015625 -96.078125 C 131.367188 -93.722656 133.851562 -92.546875 136.46875 -92.546875 L 287.0625 -92.546875 C 289.675781 -92.546875 292.03125 -93.722656 294.125 -96.078125 C 296.21875 -98.429688 297.265625 -100.914062 297.265625 -103.53125 L 297.265625 -229.03125 C 297.265625 -231.644531 296.21875 -234.128906 294.125 -236.484375 C 292.03125 -238.835938 289.675781 -240.015625 287.0625 -240.015625 L 68.234375 -240.015625 C 57.773438 -240.015625 49.410156 -243.671875 43.140625 -250.984375 C 35.816406 -257.265625 32.15625 -265.632812 32.15625 -276.09375 L 32.15625 -494.140625 C 32.15625 -504.597656 35.679688 -513.222656 42.734375 -520.015625 C 49.796875 -526.816406 58.296875 -530.21875 68.234375 -530.21875 L 354.515625 -530.21875 C 364.453125 -530.21875 372.953125 -526.816406 380.015625 -520.015625 C 387.078125 -513.222656 390.609375 -504.597656 390.609375 -494.140625 Z M 390.609375 -472.953125 "/></g></g></g><g fill="#ffffff" fill-opacity="1"><g transform="translate(1504.769044, 2211.146937)"><g><path d="M 390.609375 -472.953125 C 390.609375 -461.972656 386.945312 -453.347656 379.625 -447.078125 C 372.820312 -440.273438 364.453125 -436.875 354.515625 -436.875 L 135.6875 -436.875 C 128.894531 -436.875 125.5 -433.476562 125.5 -426.6875 L 125.5 -343.546875 C 125.5 -336.222656 128.894531 -332.5625 135.6875 -332.5625 L 287.0625 -332.5625 C 306.414062 -332.5625 323.800781 -327.851562 339.21875 -318.4375 C 354.644531 -309.03125 367.066406 -296.613281 376.484375 -281.1875 C 385.898438 -265.757812 390.609375 -248.375 390.609375 -229.03125 L 390.609375 -103.53125 C 390.609375 -84.707031 385.898438 -67.453125 376.484375 -51.765625 C 367.066406 -36.078125 354.515625 -23.523438 338.828125 -14.109375 C 323.148438 -4.703125 305.894531 0 287.0625 0 L 136.46875 0 C 117.644531 0 100.257812 -4.703125 84.3125 -14.109375 C 68.363281 -23.523438 55.679688 -36.078125 46.265625 -51.765625 C 36.859375 -67.453125 32.15625 -84.707031 32.15625 -103.53125 L 32.15625 -160 C 32.15625 -169.9375 35.679688 -178.429688 42.734375 -185.484375 C 49.796875 -192.546875 58.296875 -196.078125 68.234375 -196.078125 L 90.203125 -196.078125 C 99.609375 -196.078125 107.84375 -192.546875 114.90625 -185.484375 C 121.96875 -178.429688 125.5 -169.9375 125.5 -160 L 125.5 -103.53125 C 125.5 -100.914062 126.671875 -98.429688 129.015625 -96.078125 C 131.367188 -93.722656 133.851562 -92.546875 136.46875 -92.546875 L 287.0625 -92.546875 C 289.675781 -92.546875 292.03125 -93.722656 294.125 -96.078125 C 296.21875 -98.429688 297.265625 -100.914062 297.265625 -103.53125 L 297.265625 -229.03125 C 297.265625 -231.644531 296.21875 -234.128906 294.125 -236.484375 C 292.03125 -238.835938 289.675781 -240.015625 287.0625 -240.015625 L 68.234375 -240.015625 C 57.773438 -240.015625 49.410156 -243.671875 43.140625 -250.984375 C 35.816406 -257.265625 32.15625 -265.632812 32.15625 -276.09375 L 32.15625 -494.140625 C 32.15625 -504.597656 35.679688 -513.222656 42.734375 -520.015625 C 49.796875 -526.816406 58.296875 -530.21875 68.234375 -530.21875 L 354.515625 -530.21875 C 364.453125 -530.21875 372.953125 -526.816406 380.015625 -520.015625 C 387.078125 -513.222656 390.609375 -504.597656 390.609375 -494.140625 Z M 390.609375 -472.953125 "/></g></g></g><g fill="#ffffff" fill-opacity="1"><g transform="translate(1927.528943, 2211.146937)"><g/></g></g><g fill="#ffffff" fill-opacity="1"><g transform="translate(2107.92741, 2211.146937)"><g><path d="M 446.296875 -478.453125 L 200.796875 -18.828125 C 193.992188 -6.273438 183.535156 0 169.421875 0 L 145.109375 0 C 131.503906 0 121.304688 -5.75 114.515625 -17.25 C 108.242188 -28.757812 107.984375 -40.785156 113.734375 -53.328125 L 359.234375 -511.390625 C 366.023438 -523.941406 376.484375 -530.21875 390.609375 -530.21875 L 414.921875 -530.21875 C 428.515625 -530.21875 438.707031 -524.460938 445.5 -512.953125 C 452.300781 -501.972656 452.566406 -490.472656 446.296875 -478.453125 Z M 242.359375 -360.015625 C 242.359375 -335.960938 233.992188 -315.304688 217.265625 -298.046875 C 200.535156 -280.796875 179.878906 -272.171875 155.296875 -272.171875 L 119.21875 -272.171875 C 103.007812 -272.171875 88.367188 -276.09375 75.296875 -283.9375 C 62.222656 -291.78125 51.765625 -302.367188 43.921875 -315.703125 C 36.078125 -329.035156 32.15625 -343.804688 32.15625 -360.015625 L 32.15625 -443.15625 C 32.15625 -459.363281 36.078125 -474.003906 43.921875 -487.078125 C 51.765625 -500.148438 62.222656 -510.609375 75.296875 -518.453125 C 88.367188 -526.296875 103.007812 -530.21875 119.21875 -530.21875 L 155.296875 -530.21875 C 179.878906 -530.21875 200.535156 -521.71875 217.265625 -504.71875 C 233.992188 -487.726562 242.359375 -467.207031 242.359375 -443.15625 Z M 149.8125 -374.921875 L 149.8125 -426.6875 C 149.8125 -434 146.148438 -437.65625 138.828125 -437.65625 L 135.6875 -437.65625 C 128.894531 -437.65625 125.5 -434 125.5 -426.6875 L 125.5 -374.921875 C 125.5 -368.640625 128.894531 -365.5 135.6875 -365.5 L 138.828125 -365.5 C 146.148438 -365.5 149.8125 -368.640625 149.8125 -374.921875 Z M 527.859375 -87.84375 C 527.859375 -63.269531 519.359375 -42.484375 502.359375 -25.484375 C 485.367188 -8.492188 464.847656 0 440.796875 0 L 404.71875 0 C 380.664062 0 360.140625 -8.492188 343.140625 -25.484375 C 326.148438 -42.484375 317.65625 -63.269531 317.65625 -87.84375 L 317.65625 -170.203125 C 317.65625 -194.773438 326.148438 -215.554688 343.140625 -232.546875 C 360.140625 -249.546875 380.664062 -258.046875 404.71875 -258.046875 L 440.796875 -258.046875 C 457.003906 -258.046875 471.644531 -254.125 484.71875 -246.28125 C 497.789062 -238.4375 508.25 -227.847656 516.09375 -214.515625 C 523.9375 -201.179688 527.859375 -186.410156 527.859375 -170.203125 Z M 434.53125 -103.53125 L 434.53125 -154.515625 C 434.53125 -161.316406 431.390625 -164.71875 425.109375 -164.71875 L 421.1875 -164.71875 C 413.875 -164.71875 410.21875 -161.316406 410.21875 -154.515625 L 410.21875 -103.53125 C 410.21875 -96.207031 413.875 -92.546875 421.1875 -92.546875 L 425.109375 -92.546875 C 431.390625 -92.546875 434.53125 -96.207031 434.53125 -103.53125 Z M 434.53125 -103.53125 "/></g></g></g><g clip-path="url(#6c86457b88)"><g clip-path="url(#45d45801cd)"><path fill="#d9d9d9" d="M 220.125 220.125 L 3529.875 220.125 L 3529.875 3529.875 L 220.125 3529.875 Z M 220.125 220.125 " fill-opacity="1" fill-rule="nonzero"/></g></g><g clip-path="url(#4cc794f072)"><g clip-path="url(#075945029a)"><path fill="#00fefb" d="M 220.125 220.125 L 3529.875 220.125 L 3529.875 3529.875 L 220.125 3529.875 Z M 220.125 220.125 " fill-opacity="1" fill-rule="nonzero"/></g></g></svg>