<svg xmlns="http://www.w3.org/2000/svg" xmlns:xlink="http://www.w3.org/1999/xlink" width="5000" zoomAndPan="magnify" viewBox="0 0 3750 3749.999967" height="5000" preserveAspectRatio="xMidYMid meet" version="1.0"><defs><g/><clipPath id="52aef70b45"><path d="M 220.125 220.125 L 3529.875 220.125 L 3529.875 3529.875 L 220.125 3529.875 Z M 220.125 220.125 " clip-rule="nonzero"/></clipPath><clipPath id="0fd0a7db8d"><path d="M 1875 220.125 C 2788.960938 220.125 3529.875 961.039062 3529.875 1875 C 3529.875 2788.960938 2788.960938 3529.875 1875 3529.875 C 961.039062 3529.875 220.125 2788.960938 220.125 1875 C 220.125 961.039062 961.039062 220.125 1875 220.125 L 1875 551.101562 C 1143.832031 551.101562 551.101562 1143.832031 551.101562 1875 C 551.101562 2606.167969 1143.832031 3198.898438 1875 3198.898438 C 2606.167969 3198.898438 3198.898438 2606.167969 3198.898438 1875 C 3198.898438 1143.832031 2606.167969 551.101562 1875 551.101562 Z M 1875 220.125 " clip-rule="nonzero"/></clipPath><clipPath id="26bace2d40"><path d="M 973 229 L 3530 229 L 3530 3530 L 973 3530 Z M 973 229 " clip-rule="nonzero"/></clipPath><clipPath id="85683ef79a"><path d="M 2058.875 230.371094 C 2726.648438 305.03125 3282.988281 776.054688 3466.769531 1422.367188 C 3650.554688 2068.675781 3425.292969 2761.957031 2896.71875 3176.808594 C 2368.140625 3591.660156 1641.191406 3645.71875 1057.070312 3313.609375 C 1005.671875 3284.390625 973.769531 3229.96875 973.378906 3170.84375 C 972.988281 3111.722656 1004.167969 3056.882812 1055.171875 3026.984375 C 1106.175781 2997.085938 1169.257812 2996.667969 1220.65625 3025.890625 C 1687.953125 3291.574219 2269.515625 3248.328125 2692.375 2916.445312 C 3115.234375 2584.566406 3295.445312 2029.941406 3148.417969 1512.894531 C 3001.390625 995.84375 2556.316406 619.023438 2022.101562 559.296875 C 1963.34375 552.726562 1912.554688 515.3125 1888.863281 461.140625 C 1865.175781 406.972656 1872.183594 344.28125 1907.253906 296.679688 C 1942.320312 249.078125 2000.117188 223.804688 2058.875 230.371094 Z M 2058.875 230.371094 " clip-rule="nonzero"/></clipPath></defs><g fill="#ffffff" fill-opacity="1"><g transform="translate(1082.009146, 2211.146577)"><g><path d="M 390.609375 -103.53125 C 390.609375 -84.707031 385.898438 -67.453125 376.484375 -51.765625 C 367.066406 -36.078125 354.515625 -23.523438 338.828125 -14.109375 C 323.148438 -4.703125 305.894531 0 287.0625 0 L 136.46875 0 C 117.644531 0 100.257812 -4.703125 84.3125 -14.109375 C 68.363281 -23.523438 55.679688 -36.078125 46.265625 -51.765625 C 36.859375 -67.453125 32.15625 -84.707031 32.15625 -103.53125 L 32.15625 -425.90625 C 32.15625 -445.25 36.859375 -462.765625 46.265625 -478.453125 C 55.679688 -494.140625 68.363281 -506.6875 84.3125 -516.09375 C 100.257812 -525.507812 117.644531 -530.21875 136.46875 -530.21875 L 287.0625 -530.21875 C 305.894531 -530.21875 323.148438 -525.507812 338.828125 -516.09375 C 354.515625 -506.6875 367.066406 -494.140625 376.484375 -478.453125 C 385.898438 -462.765625 390.609375 -445.25 390.609375 -425.90625 L 390.609375 -406.296875 C 390.609375 -396.359375 387.078125 -387.726562 380.015625 -380.40625 C 372.953125 -373.082031 364.453125 -369.421875 354.515625 -369.421875 L 333.34375 -369.421875 C 323.40625 -369.421875 314.90625 -373.082031 307.84375 -380.40625 C 300.789062 -387.726562 297.265625 -396.359375 297.265625 -406.296875 L 297.265625 -425.90625 C 297.265625 -433.21875 293.863281 -436.875 287.0625 -436.875 L 136.46875 -436.875 C 133.851562 -436.875 131.367188 -435.828125 129.015625 -433.734375 C 126.671875 -431.648438 125.5 -429.039062 125.5 -425.90625 L 125.5 -342.765625 C 125.5 -335.960938 128.894531 -332.5625 135.6875 -332.5625 L 287.0625 -332.5625 C 305.894531 -332.5625 323.148438 -327.984375 338.828125 -318.828125 C 354.515625 -309.679688 367.066406 -297.265625 376.484375 -281.578125 C 385.898438 -265.890625 390.609375 -248.375 390.609375 -229.03125 Z M 297.265625 -103.53125 L 297.265625 -229.03125 C 297.265625 -236.351562 293.863281 -240.015625 287.0625 -240.015625 L 135.6875 -240.015625 C 128.894531 -240.015625 125.5 -236.613281 125.5 -229.8125 L 125.5 -103.53125 C 125.5 -100.914062 126.671875 -98.429688 129.015625 -96.078125 C 131.367188 -93.722656 133.851562 -92.546875 136.46875 -92.546875 L 287.0625 -92.546875 C 289.675781 -92.546875 292.03125 -93.722656 294.125 -96.078125 C 296.21875 -98.429688 297.265625 -100.914062 297.265625 -103.53125 Z M 297.265625 -103.53125 "/></g></g></g><g fill="#ffffff" fill-opacity="1"><g transform="translate(1504.769044, 2211.146577)"><g><path d="M 390.609375 -103.53125 C 390.609375 -84.707031 385.898438 -67.453125 376.484375 -51.765625 C 367.066406 -36.078125 354.515625 -23.523438 338.828125 -14.109375 C 323.148438 -4.703125 305.894531 0 287.0625 0 L 136.46875 0 C 119.738281 0 103.789062 -3.921875 88.625 -11.765625 L 87.84375 -12.546875 C 70.59375 -21.441406 57 -34.125 47.0625 -50.59375 C 37.125 -67.0625 32.15625 -84.707031 32.15625 -103.53125 L 32.15625 -425.90625 C 32.15625 -445.25 36.859375 -462.765625 46.265625 -478.453125 C 55.679688 -494.140625 68.363281 -506.6875 84.3125 -516.09375 C 100.257812 -525.507812 117.644531 -530.21875 136.46875 -530.21875 L 287.0625 -530.21875 C 291.769531 -530.21875 298.175781 -529.5625 306.28125 -528.25 C 314.382812 -526.945312 322.882812 -523.941406 331.78125 -519.234375 L 332.5625 -519.234375 C 350.34375 -510.347656 364.460938 -497.664062 374.921875 -481.1875 C 385.378906 -464.71875 390.609375 -446.289062 390.609375 -425.90625 Z M 244.71875 -427.46875 C 245.757812 -430.082031 245.753906 -432.300781 244.703125 -434.125 C 243.660156 -435.957031 241.832031 -436.875 239.21875 -436.875 L 136.46875 -436.875 C 133.851562 -436.875 131.367188 -435.828125 129.015625 -433.734375 C 126.671875 -431.648438 125.5 -429.039062 125.5 -425.90625 L 125.5 -221.96875 C 125.5 -219.875 126.539062 -218.566406 128.625 -218.046875 C 130.71875 -217.523438 132.289062 -218.3125 133.34375 -220.40625 Z M 297.265625 -103.53125 L 297.265625 -312.953125 C 297.265625 -315.566406 296.347656 -317.132812 294.515625 -317.65625 C 292.691406 -318.175781 290.992188 -317.394531 289.421875 -315.3125 L 175.6875 -101.96875 C 175.164062 -99.875 175.425781 -97.78125 176.46875 -95.6875 C 177.519531 -93.59375 179.09375 -92.546875 181.1875 -92.546875 L 287.0625 -92.546875 C 289.675781 -92.546875 292.03125 -93.722656 294.125 -96.078125 C 296.21875 -98.429688 297.265625 -100.914062 297.265625 -103.53125 Z M 297.265625 -103.53125 "/></g></g></g><g fill="#ffffff" fill-opacity="1"><g transform="translate(1927.528943, 2211.146577)"><g/></g></g><g fill="#ffffff" fill-opacity="1"><g transform="translate(2107.92741, 2211.146577)"><g><path d="M 446.296875 -478.453125 L 200.796875 -18.828125 C 193.992188 -6.273438 183.535156 0 169.421875 0 L 145.109375 0 C 131.503906 0 121.304688 -5.75 114.515625 -17.25 C 108.242188 -28.757812 107.984375 -40.785156 113.734375 -53.328125 L 359.234375 -511.390625 C 366.023438 -523.941406 376.484375 -530.21875 390.609375 -530.21875 L 414.921875 -530.21875 C 428.515625 -530.21875 438.707031 -524.460938 445.5 -512.953125 C 452.300781 -501.972656 452.566406 -490.472656 446.296875 -478.453125 Z M 242.359375 -360.015625 C 242.359375 -335.960938 233.992188 -315.304688 217.265625 -298.046875 C 200.535156 -280.796875 179.878906 -272.171875 155.296875 -272.171875 L 119.21875 -272.171875 C 103.007812 -272.171875 88.367188 -276.09375 75.296875 -283.9375 C 62.222656 -291.78125 51.765625 -302.367188 43.921875 -315.703125 C 36.078125 -329.035156 32.15625 -343.804688 32.15625 -360.015625 L 32.15625 -443.15625 C 32.15625 -459.363281 36.078125 -474.003906 43.921875 -487.078125 C 51.765625 -500.148438 62.222656 -510.609375 75.296875 -518.453125 C 88.367188 -526.296875 103.007812 -530.21875 119.21875 -530.21875 L 155.296875 -530.21875 C 179.878906 -530.21875 200.535156 -521.71875 217.265625 -504.71875 C 233.992188 -487.726562 242.359375 -467.207031 242.359375 -443.15625 Z M 149.8125 -374.921875 L 149.8125 -426.6875 C 149.8125 -434 146.148438 -437.65625 138.828125 -437.65625 L 135.6875 -437.65625 C 128.894531 -437.65625 125.5 -434 125.5 -426.6875 L 125.5 -374.921875 C 125.5 -368.640625 128.894531 -365.5 135.6875 -365.5 L 138.828125 -365.5 C 146.148438 -365.5 149.8125 -368.640625 149.8125 -374.921875 Z M 527.859375 -87.84375 C 527.859375 -63.269531 519.359375 -42.484375 502.359375 -25.484375 C 485.367188 -8.492188 464.847656 0 440.796875 0 L 404.71875 0 C 380.664062 0 360.140625 -8.492188 343.140625 -25.484375 C 326.148438 -42.484375 317.65625 -63.269531 317.65625 -87.84375 L 317.65625 -170.203125 C 317.65625 -194.773438 326.148438 -215.554688 343.140625 -232.546875 C 360.140625 -249.546875 380.664062 -258.046875 404.71875 -258.046875 L 440.796875 -258.046875 C 457.003906 -258.046875 471.644531 -254.125 484.71875 -246.28125 C 497.789062 -238.4375 508.25 -227.847656 516.09375 -214.515625 C 523.9375 -201.179688 527.859375 -186.410156 527.859375 -170.203125 Z M 434.53125 -103.53125 L 434.53125 -154.515625 C 434.53125 -161.316406 431.390625 -164.71875 425.109375 -164.71875 L 421.1875 -164.71875 C 413.875 -164.71875 410.21875 -161.316406 410.21875 -154.515625 L 410.21875 -103.53125 C 410.21875 -96.207031 413.875 -92.546875 421.1875 -92.546875 L 425.109375 -92.546875 C 431.390625 -92.546875 434.53125 -96.207031 434.53125 -103.53125 Z M 434.53125 -103.53125 "/></g></g></g><g clip-path="url(#52aef70b45)"><g clip-path="url(#0fd0a7db8d)"><path fill="#d9d9d9" d="M 220.125 220.125 L 3529.875 220.125 L 3529.875 3529.875 L 220.125 3529.875 Z M 220.125 220.125 " fill-opacity="1" fill-rule="nonzero"/></g></g><g clip-path="url(#26bace2d40)"><g clip-path="url(#85683ef79a)"><path fill="#00fefb" d="M 220.125 220.125 L 3529.875 220.125 L 3529.875 3529.875 L 220.125 3529.875 Z M 220.125 220.125 " fill-opacity="1" fill-rule="nonzero"/></g></g></svg>